<svg id="Layer_1" data-name="Layer 1" xmlns="http://www.w3.org/2000/svg" viewBox="0 0 292.76 278.94"><defs><style>.cls-1{fill:#2c3235;}.cls-2{fill:#96c418;}.cls-3{fill:#fff;}</style></defs><title>freesafelovedicons</title><path class="cls-1" d="M144.25,40.14C165,6.41,195.3-6.37,231,2.47c32.5,8,57.2,36.56,59.33,69.4,1.67,25.63-10.38,46.44-25,66-13,17.37-29.72,31.08-45.94,45.24-20,17.49-40.26,34.78-60.13,52.47-9.46,8.42-18.37,9.22-28,.62-29-25.86-58.24-51.41-87-77.52A149.24,149.24,0,0,1,7.86,108.91C-15.35,57,21.11.38,78.26.24,107.26.16,131.27,9.9,144.25,40.14Z"/><path class="cls-2" d="M208.53,176.72a4.92,4.92,0,0,0-4.91-4.4h-5.84a5,5,0,0,0-4.92,5.07c.46,26.22-16.31,37.46-30.14,37.58-5.65,0-8.63-1.43-10.17-3.27a28.28,28.28,0,1,0-13.86,0c-1.54,1.83-4.52,3.31-10.17,3.27-13.84-.12-30.6-11.35-30.14-37.58a5,5,0,0,0-4.92-5.07H87.63a4.92,4.92,0,0,0-4.91,4.4c-1.15,10.82-.93,38.8,29.1,52.11,0,0,12.8,6.4,13.15,14.93.26,6.22.14,22.09.06,30.22a4.91,4.91,0,0,0,4.94,5h31.32a4.91,4.91,0,0,0,4.94-5c-.08-8.13-.2-24,.06-30.22.36-8.53,13.15-14.93,13.15-14.93C209.46,215.52,209.68,187.54,208.53,176.72Z"/><path class="cls-2" d="M33.44,251.31c.12,2.86.14,8.3.12,13.61a3.79,3.79,0,0,0,3.8,3.81H62a3.79,3.79,0,0,0,3.8-3.81c0-5.31,0-10.75.12-13.61.28-6.7,10.33-11.72,10.33-11.72,23.56-10.44,23.75-32.39,22.85-40.9a3.87,3.87,0,0,0-3.86-3.47H90.61a3.88,3.88,0,0,0-3.86,4c.36,20.59-12.8,29.42-23.67,29.51-4.44,0-6.77-1.12-8-2.56a22.21,22.21,0,1,0-10.89,0c-1.21,1.44-3.55,2.6-8,2.56-10.86-.09-24-8.91-23.67-29.51a3.88,3.88,0,0,0-3.86-4H4.11a3.87,3.87,0,0,0-3.86,3.47c-.9,8.51-.71,30.45,22.85,40.9C23.11,239.59,33.16,244.62,33.44,251.31Z"/><path class="cls-2" d="M216.55,239.59s10.05,5,10.33,11.72c.12,2.86.14,8.3.12,13.61a3.79,3.79,0,0,0,3.8,3.81H255.4a3.79,3.79,0,0,0,3.8-3.81c0-5.31,0-10.75.12-13.61.28-6.7,10.33-11.72,10.33-11.72,23.56-10.44,23.75-32.39,22.85-40.9a3.87,3.87,0,0,0-3.86-3.47h-4.58a3.88,3.88,0,0,0-3.86,4c.36,20.59-12.8,29.42-23.67,29.51-4.44,0-6.77-1.12-8-2.56a22.21,22.21,0,1,0-10.89,0c-1.21,1.44-3.55,2.6-8,2.56-10.86-.09-24-8.91-23.67-29.51a3.88,3.88,0,0,0-3.86-4h-4.58a3.87,3.87,0,0,0-3.86,3.47C192.8,207.2,193,229.15,216.55,239.59Z"/><path class="cls-3" d="M49,212.73a56.27,56.27,0,0,1-14.74-1.79,16.55,16.55,0,0,0,31.07-.49A53.21,53.21,0,0,1,49,212.73Z"/><path class="cls-3" d="M242.31,212.73a56.27,56.27,0,0,1-14.74-1.79,16.55,16.55,0,0,0,31.07-.49A53.21,53.21,0,0,1,242.31,212.73Z"/><path class="cls-3" d="M144.72,195.39a72.69,72.69,0,0,1-19-2.32,21.38,21.38,0,0,0,40.14-.63A68.74,68.74,0,0,1,144.72,195.39Z"/></svg>