<svg id="Layer_1" data-name="Layer 1" xmlns="http://www.w3.org/2000/svg" viewBox="0 0 275.58 275.58"><defs><style>.cls-1{fill:#96c418;}.cls-2{fill:#2c3235;}</style></defs><title>freesafelovedicons</title><path class="cls-1" d="M133,244.39v-18A58.59,58.59,0,0,1,112.12,221a39,39,0,0,1-14.33-11.55,50.34,50.34,0,0,1-8-15.9,66.91,66.91,0,0,1-2.63-19.26L125.4,167v5.14q0,3.47.21,6.25a47.08,47.08,0,0,0,1.05,6.56,22.29,22.29,0,0,0,2.26,6.25,12.48,12.48,0,0,0,11,6q10.81,0,10.81-12.91a23,23,0,0,0-.52-5,15.26,15.26,0,0,0-2-4.72q-1.47-2.36-2.52-3.88a24.65,24.65,0,0,0-3.78-3.94q-2.73-2.41-3.83-3.41t-4.72-3.78l-4.57-3.52L117,146.77q-5.57-4.41-8.87-7.24a97.75,97.75,0,0,1-7.82-7.72,47.82,47.82,0,0,1-6.93-9.29,54,54,0,0,1-4.25-10.6A45.91,45.91,0,0,1,87.3,98.79q0-20.37,12.39-32.7T133,51.87V31.19H143V51.55q19.21.95,32.18,13.28a40.3,40.3,0,0,1,13,30.39v4.83L149,105.3q.31-5.67.31-7.77,0-17-11.76-17-6.4,0-9.55,4.09a15.23,15.23,0,0,0-3.15,9.55,21,21,0,0,0,4,13,60.57,60.57,0,0,0,11.92,11.39l12.91,9.76q7.45,5.57,12,9.39a103,103,0,0,1,9.34,9.13,48.12,48.12,0,0,1,7.4,10.34,55.48,55.48,0,0,1,4.25,11.76,60.61,60.61,0,0,1,1.68,14.7q0,18.16-13.12,30.08T143,226.55v17.85Z"/><path class="cls-2" d="M137.79,0A137.79,137.79,0,1,0,275.58,137.79,137.79,137.79,0,0,0,137.79,0Zm0,250.16A112.37,112.37,0,1,1,250.16,137.79,112.37,112.37,0,0,1,137.79,250.16Z"/><rect class="cls-2" x="3.1" y="125.55" width="269.39" height="24.49" transform="translate(-45.31 204.47) rotate(-65.01)"/></svg>