<svg id="Layer_1" data-name="Layer 1" xmlns="http://www.w3.org/2000/svg" viewBox="0 0 241.35 287.19"><defs><style>.cls-1{fill:#2c3235;}.cls-2{fill:#2ad8cb;}.cls-3{fill:#96c418;}</style></defs><title>freesafelovedicons</title><path class="cls-1" d="M241.32,63.44c0-16.53-4.6-21.67-21.1-23.94-25.77-3.55-51-8.94-74-21.73A79.93,79.93,0,0,1,127.25,3.59C125.14,1.41,122.94.11,120.68,0c-2.26.11-4.46,1.41-6.57,3.59A79.93,79.93,0,0,1,95.18,17.77C72.12,30.57,46.91,36,21.13,39.5,4.64,41.77.07,46.91,0,63.44,0,93.67,0,123.89,0,154.12A94.52,94.52,0,0,0,2.85,178.7C15,224.21,45.67,253.7,86.74,273c20.27,9.52,27.1,14.24,33.94,14.21s13.67-4.69,33.94-14.21c41.06-19.28,71.76-48.77,83.89-94.29a94.52,94.52,0,0,0,2.85-24.57C241.32,123.89,241.39,93.67,241.32,63.44Z"/><path class="cls-2" d="M93.32,185.63l-.31-.37C93.11,185.39,93.22,185.51,93.32,185.63Z"/><path class="cls-3" d="M177.93,102.73,175,100a8.82,8.82,0,0,0-12.46.48l-57.33,61.89a1.89,1.89,0,0,1-2.84-.07L82,137.91a8.82,8.82,0,0,0-12.42-1.12l-3.05,2.55a8.82,8.82,0,0,0-1.12,12.42l24.65,29.54h0c3.27,3.92,6.92,7.54,7.63,8.24a8.81,8.81,0,0,0,12.35-.56l68.35-73.79A8.82,8.82,0,0,0,177.93,102.73Z"/></svg>